<svg width="142" height="27" viewBox="0 0 142 27" fill="none" xmlns="http://www.w3.org/2000/svg">
<path fill-rule="evenodd" clip-rule="evenodd" d="M12.1582 0C13.3647 0 14.4784 0.0940345 15.4993 0.372414C16.5203 0.558621 17.3556 0.931034 18.098 1.39655C18.8405 1.86207 19.3974 2.51379 19.7686 3.35266C20.1399 4.18966 20.3255 5.21472 20.3255 6.33197C20.3255 7.63448 20.0471 8.75266 19.3974 9.59059C18.8405 10.4276 17.9124 11.1724 16.7987 11.731C18.3765 12.1966 19.583 13.0336 20.3255 14.1517C21.068 15.269 21.532 16.6655 21.532 18.2483C21.532 19.5508 21.2536 20.669 20.7895 21.6C20.3255 22.531 19.583 23.369 18.7477 23.9276C17.9124 24.4871 16.8915 24.9527 15.7778 25.231C14.6641 25.5094 13.5503 25.6966 12.4366 25.6966H0V0H12.1582ZM11.4157 10.4276C12.4366 10.4276 13.2719 10.1483 13.9216 9.68276C14.5712 9.21724 14.8497 8.37931 14.8497 7.35517C14.8497 6.79655 14.7569 6.23793 14.5712 5.86552C14.3856 5.4931 14.1072 5.21379 13.7359 4.93448C13.3647 4.74828 12.9935 4.56207 12.5294 4.46897C12.0654 4.37586 11.6013 4.37586 11.0444 4.37586H5.66144V10.4276H11.4157ZM11.6941 21.4138C12.251 21.4138 12.8078 21.3207 13.2719 21.2285C13.7359 21.1345 14.2 20.9483 14.5712 20.669C14.9425 20.3897 15.2209 20.1103 15.4993 19.6448C15.685 19.1793 15.8706 18.6198 15.8706 17.969C15.8706 16.6655 15.4993 15.7345 14.7569 15.0818C14.0144 14.5232 12.9935 14.2448 11.7869 14.2448H5.66144V21.4138H11.6941Z" fill="black"/>
<path fill-rule="evenodd" clip-rule="evenodd" d="M29.6065 21.3207C30.349 22.0655 31.4627 22.4379 32.9477 22.4379C33.9686 22.4379 34.8967 22.1586 35.6392 21.6931C36.3816 21.1336 36.8457 20.5759 37.0313 20.0163H41.579C40.8365 22.2508 39.7228 23.8345 38.2379 24.8577C36.7529 25.7887 34.9895 26.3483 32.8548 26.3483C31.3699 26.3483 30.0705 26.068 28.864 25.6025C27.6575 25.137 26.7294 24.4862 25.8941 23.5552C25.0588 22.7172 24.4091 21.6931 24.0379 20.4818C23.5738 19.2715 23.3882 17.969 23.3882 16.4784C23.3882 15.0818 23.5738 13.7793 24.0379 12.568C24.5019 11.3577 25.1516 10.3345 25.9869 9.40346C26.8222 8.56552 27.8431 7.8207 28.9568 7.35518C30.1633 6.88966 31.3699 6.61035 32.8548 6.61035C34.4326 6.61035 35.8248 6.88966 37.0313 7.54139C38.2379 8.19311 39.166 8.93794 39.9084 10.0552C40.6509 11.0793 41.2078 12.2887 41.579 13.5931C41.7647 14.8966 41.8575 16.2 41.7647 17.6897H28.3071C28.3071 19.1793 28.864 20.5759 29.6065 21.3207ZM35.4535 11.5448C34.8039 10.8931 33.783 10.5207 32.5764 10.5207C31.7411 10.5207 31.0915 10.706 30.5346 10.9862C29.9777 11.2655 29.6065 11.637 29.2352 12.0104C28.864 12.3837 28.6784 12.8483 28.5856 13.3138C28.4928 13.7793 28.3999 14.1508 28.3999 14.5241H36.7529C36.5673 13.1276 36.1032 12.1966 35.4535 11.5448Z" fill="black"/>
<path fill-rule="evenodd" clip-rule="evenodd" d="M49.004 0V9.68276H49.0968C49.7465 8.56552 50.5818 7.82069 51.6027 7.35517C52.6236 6.88966 53.5517 6.61034 54.5726 6.61034C55.9648 6.61034 57.0785 6.79655 57.9138 7.16897C58.7491 7.54138 59.4916 8.1 59.9556 8.75172C60.4197 9.40345 60.7909 10.2414 60.9765 11.1724C61.1622 12.1034 61.255 13.1285 61.255 14.3379V25.7897H56.1504V15.269C56.1504 13.6862 55.872 12.569 55.4079 11.8241C54.9439 11.0793 54.1086 10.7069 52.902 10.7069C51.5099 10.7069 50.489 11.1724 49.9321 11.9182C49.2824 12.7552 49.004 14.1517 49.004 16.0138V25.7897H43.8994V0H49.004Z" fill="black"/>
<path fill-rule="evenodd" clip-rule="evenodd" d="M64.9674 9.86893C65.5242 9.031 66.1739 8.47238 67.0092 7.91282C67.8445 7.44731 68.7726 7.07582 69.7935 6.88869C70.8144 6.70248 71.8344 6.60938 72.8562 6.60938C73.7843 6.60938 74.7125 6.70248 75.7343 6.79558C76.6624 6.88869 77.5905 7.16706 78.3321 7.54041C79.1674 7.91189 79.7242 8.47144 80.282 9.12317C80.7451 9.77582 81.0236 10.7069 81.0236 11.8241V21.6C81.0236 22.4379 81.1164 23.2758 81.2092 24.0216C81.3029 24.7664 81.5795 25.4181 81.8589 25.7896H76.6615C76.4749 25.6034 76.3821 25.231 76.2902 24.9526C76.1974 24.6724 76.1974 24.3009 76.1974 24.0216C75.3621 24.8586 74.434 25.4181 73.3203 25.7896C72.2066 26.162 71.0928 26.2551 69.9791 26.2551C69.051 26.2551 68.3085 26.162 67.4732 25.8837C66.7308 25.6974 66.0811 25.3241 65.4314 24.8586C64.8745 24.3931 64.4105 23.8344 64.0392 23.0905C63.7608 22.3448 63.5752 21.6 63.5752 20.5758C63.5752 19.5508 63.7608 18.6197 64.1321 17.9689C64.5033 17.3172 64.9674 16.7586 65.5242 16.2931C66.0811 15.9216 66.8236 15.5482 67.566 15.362C68.3085 15.1768 69.051 14.9905 69.8863 14.8965C70.6288 14.8034 71.3713 14.7112 72.1138 14.6172C72.8562 14.5241 73.5059 14.431 74.0628 14.3379C74.6196 14.1517 75.0837 13.9655 75.4549 13.6862C75.8262 13.4069 75.919 13.0344 75.919 12.4758C75.919 11.9172 75.8262 11.4517 75.6406 11.1724C75.4549 10.8931 75.1765 10.6138 74.8981 10.4275C74.6187 10.2413 74.2484 10.1482 73.8772 10.0561C73.5059 9.96203 73.0419 9.96203 72.5778 9.96203C71.5569 9.96203 70.8144 10.1482 70.2575 10.6138C69.7007 11.0793 69.3294 11.8241 69.2366 12.7551H64.1321C64.1321 11.6379 64.5033 10.6138 64.9674 9.86893ZM75.0828 17.131C74.8053 17.2241 74.434 17.3172 74.0618 17.4103C73.6906 17.5043 73.3194 17.5043 72.8553 17.5965C72.485 17.6896 72.0209 17.6896 71.6488 17.7827C71.2775 17.8758 70.9063 17.9689 70.5351 18.062C70.1638 18.1551 69.7926 18.3413 69.6069 18.5275C69.3285 18.7138 69.1429 18.9931 68.9573 19.2724C68.6798 19.6448 68.6798 20.0172 68.6798 20.4827C68.6798 20.9482 68.7726 21.3207 68.9582 21.6C69.1438 21.8793 69.3294 22.1595 69.6079 22.3448C69.8863 22.531 70.2575 22.625 70.6288 22.7172C71 22.8094 71.3703 22.8103 71.8344 22.8103C72.8562 22.8103 73.5978 22.625 74.1547 22.3448C74.7125 21.9733 75.0828 21.6 75.3621 21.1344C75.6406 20.6689 75.8262 20.2034 75.8262 19.7379C75.919 19.2724 75.919 18.9009 75.919 18.6207V16.6655C75.6406 16.8517 75.3621 17.0388 75.0828 17.131Z" fill="black"/>
<path fill-rule="evenodd" clip-rule="evenodd" d="M88.7275 7.07587V9.68277H88.8203C89.4691 8.56552 90.3053 7.8207 91.3253 7.35518C92.3471 6.88966 93.4609 6.61035 94.4809 6.61035C95.873 6.61035 96.9867 6.79656 97.822 7.16897C98.7501 7.54139 99.4007 8.10001 99.8648 8.75173C100.329 9.40346 100.699 10.2414 100.978 11.1724C101.163 12.1035 101.257 13.1285 101.257 14.3379V25.7897H96.1524V15.269C96.1524 13.6862 95.873 12.569 95.409 11.8241C94.9449 11.0793 94.1096 10.6138 92.8103 10.6138C91.4181 10.6138 90.3963 11.1724 89.7475 12.0104C89.0978 12.8483 88.8194 14.2448 88.8194 16.1069V25.8828H83.7148V7.07587H88.7275Z" fill="black"/>
<path fill-rule="evenodd" clip-rule="evenodd" d="M112.671 10.4276C111.836 10.4276 111.186 10.6138 110.63 10.9872C110.073 11.3587 109.609 11.8242 109.238 12.4768C108.866 13.0355 108.681 13.6872 108.494 14.432C108.31 15.1778 108.31 15.8286 108.31 16.5743C108.31 17.2251 108.402 17.9709 108.494 18.6217C108.681 19.3674 108.866 19.9251 109.238 20.4837C109.609 21.0433 109.98 21.5088 110.537 21.8803C111.094 22.2527 111.743 22.4398 112.578 22.4398C113.785 22.4398 114.714 22.0674 115.455 21.4148C116.106 20.764 116.57 19.8329 116.663 18.6217H121.582C121.211 21.1355 120.283 22.9975 118.703 24.3019C117.127 25.6044 115.085 26.2571 112.578 26.2571C111.186 26.2571 109.886 25.9778 108.773 25.5123C107.565 25.0467 106.637 24.395 105.803 23.5571C104.968 22.7192 104.317 21.695 103.853 20.5778C103.389 19.3674 103.204 18.1562 103.204 16.7596C103.204 15.2699 103.389 13.9665 103.853 12.7562C104.317 11.5458 104.875 10.4286 105.709 9.49753C106.544 8.5665 107.565 7.91478 108.68 7.35616C109.886 6.89064 111.185 6.61133 112.67 6.61133C113.784 6.61133 114.805 6.79754 115.825 7.07685C116.845 7.35616 117.774 7.82167 118.517 8.37936C119.352 8.93891 120.002 9.68281 120.466 10.6138C120.93 11.4518 121.209 12.569 121.301 13.7794H116.289C116.107 11.5449 114.899 10.4276 112.671 10.4276Z" fill="black"/>
<rect x="27.2861" y="1.76904" width="10.3948" height="2.51379" fill="black"/>
<path fill-rule="evenodd" clip-rule="evenodd" d="M129.285 21.3207C130.028 22.0655 131.234 22.4379 132.626 22.4379C133.648 22.4379 134.576 22.1586 135.317 21.6931C136.061 21.1336 136.525 20.5759 136.71 20.0163H141.165C140.422 22.2508 139.309 23.8345 137.823 24.8577C136.337 25.7887 134.575 26.3483 132.44 26.3483C130.955 26.3483 129.656 26.068 128.449 25.6025C127.243 25.137 126.315 24.4862 125.48 23.5552C124.644 22.7172 123.995 21.6931 123.623 20.4818C123.159 19.2715 122.974 17.969 122.974 16.4784C122.974 15.0818 123.159 13.7793 123.623 12.568C124.087 11.3577 124.736 10.3345 125.572 9.40346C126.408 8.56552 127.429 7.8207 128.542 7.35518C129.749 6.88966 131.048 6.61035 132.44 6.61035C134.017 6.61035 135.409 6.88966 136.524 7.54139C137.73 8.19311 138.658 8.93794 139.401 10.0552C140.144 11.0793 140.7 12.2887 141.072 13.5931C141.442 14.8956 141.536 16.2922 141.442 17.7828H127.984C127.984 19.1793 128.542 20.5759 129.285 21.3207ZM135.225 11.5448C134.575 10.8931 133.553 10.5207 132.347 10.5207C131.512 10.5207 130.862 10.706 130.305 10.9862C129.748 11.2655 129.284 11.637 129.006 12.0104C128.729 12.3837 128.449 12.8483 128.357 13.3138C128.265 13.7793 128.172 14.1508 128.172 14.5241H136.525C136.246 13.1276 135.781 12.1966 135.225 11.5448Z" fill="black"/>
</svg>
