<svg width="190" height="39" viewBox="0 0 190 39" fill="none" xmlns="http://www.w3.org/2000/svg">
<path fill-rule="evenodd" clip-rule="evenodd" d="M124.188 10.2294C121.733 9.68415 119.274 10.0221 116.922 11.2287C116.479 11.455 115.902 11.7782 115.695 11.8977C115.629 11.9367 115.544 11.9349 115.478 11.8956L115.356 11.8256C115.091 11.6672 114.622 11.3893 114.346 11.2333C112.658 10.2744 110.842 9.78955 108.948 9.78955C107.285 9.78955 106.216 10.1711 106.204 10.175C106.194 10.1803 104.916 10.6728 103.888 11.1103C103.836 11.1331 103.777 11.1335 103.723 11.1131L100.635 9.87317L100.643 28.4312L104.549 30.5653V16.8756C104.618 14.1157 106.195 12.5972 108.989 12.5972C111.51 12.5972 112.964 14.1495 112.984 16.8566L112.978 28.2095L117.051 30.4184L117.064 16.9027C117.043 14.3845 118.308 12.9524 120.822 12.646C123.616 12.3021 125.338 13.744 125.459 16.4856L125.452 28.2495L129.593 30.5646L129.607 16.695C129.553 13.0009 127.933 11.0657 124.188 10.2294Z" fill="black"/>
<path fill-rule="evenodd" clip-rule="evenodd" d="M77.7375 28.9589C76.3123 27.8589 74.5409 27.3399 72.1622 27.3206H72.0006C71.772 27.3206 71.5416 27.3241 71.3123 27.3262L71.1149 27.3301C69.9394 27.3399 68.6937 27.3434 67.4933 26.8424C66.596 26.4661 65.4451 25.8119 65.7932 24.4774C65.9494 23.8763 66.2444 23.584 66.6996 23.584C67.0213 23.584 67.3781 23.7287 67.6914 23.8566C67.8673 23.9265 68.0317 23.9929 68.1908 24.039C69.0165 24.2708 69.9012 24.3882 70.8213 24.3882C74.5563 24.3882 78.4188 22.6655 78.4188 19.7802V9.86509L76.0581 11.5734C75.9692 11.638 75.8477 11.6247 75.7729 11.5449C75.3093 11.046 74.4022 10.558 74.0415 10.4199C72.7852 9.93817 71.5465 9.69434 70.3612 9.69434C68.0928 9.69434 66.0558 10.6015 64.4712 12.3196C63.3706 13.6621 63.0229 15.4997 62.9639 15.8553C62.5558 19.3786 64.1341 22.0338 64.6268 22.7636C64.6647 22.8201 64.6749 22.8932 64.6507 22.9571C64.6282 23.0232 64.5741 23.0731 64.5088 23.0928C63.9413 23.2576 62.9895 23.7941 62.9895 25.5262C62.9895 27.8887 63.9451 28.4927 64.6626 28.7425C64.735 28.7681 64.7887 28.8296 64.8038 28.9031C64.8193 28.9779 64.7936 29.0552 64.7378 29.1058C64.2141 29.5868 63.706 30.144 63.5599 30.3622C62.5986 31.813 62.3134 33.3867 62.7591 34.7907C63.1771 36.1103 64.2226 37.1535 65.7015 37.7258C69.3224 39.1298 72.9875 39.0778 76.6885 37.5646C78.3602 36.8791 79.5002 35.4319 79.7348 33.6902C79.9785 31.8811 79.2329 30.1128 77.7375 28.9589ZM68.0033 13.5378C68.693 12.8467 69.6732 12.4971 70.9182 12.4971C70.9193 12.4971 70.9203 12.4971 70.9207 12.4971L71.0801 12.4988C73.7805 12.5645 75.0385 14.0272 75.0403 17.1012C75.0417 18.6823 74.7133 19.8284 74.038 20.6031C73.3591 21.3813 72.3564 21.7587 70.9723 21.7587L70.8248 21.758C68.1785 21.7053 66.8345 20.1639 66.8239 17.175C66.819 15.5528 67.2148 14.3297 68.0033 13.5378ZM72.702 35.9066C72.1998 36.0323 71.6789 36.077 71.2182 36.1167C71.0303 36.1311 70.8543 36.1469 70.7216 36.168C70.4129 36.1469 70.1723 36.137 69.9412 36.1293C69.4527 36.1065 69.0397 36.0875 68.6154 35.9968C66.9454 35.6339 65.057 35.2256 65.1069 33.0307C65.1582 30.6482 67.0016 30.2923 68.9866 30.2621L69.0885 30.2607C69.5254 30.2533 69.958 30.2477 70.3925 30.2477C71.2034 30.2477 71.8514 30.2695 72.4337 30.3229C74.4387 30.4898 75.4912 31.3024 75.6549 32.8041C75.8642 34.7116 74.6255 35.4248 72.702 35.9066Z" fill="black"/>
<path fill-rule="evenodd" clip-rule="evenodd" d="M164.896 0.720215L164.886 10.8809C164.886 10.9582 164.844 11.0299 164.776 11.0682C164.71 11.1079 164.627 11.1062 164.561 11.0672C164.005 10.7411 162.465 9.98113 160.169 9.98113C154.99 9.98113 152.365 12.7856 152.365 18.3176V21.4633C152.365 25.5449 153.824 30.4115 160.78 30.4115C163.217 30.4115 165.093 29.1038 165.445 28.8427C165.482 28.8139 165.528 28.8009 165.573 28.8009C165.605 28.8009 165.637 28.8076 165.668 28.8227L169.195 30.5369L169.178 3.07146L164.896 0.720215ZM164.854 23.9259C164.693 26.1528 163.329 27.3523 160.802 27.5069C160.663 27.5178 160.524 27.5227 160.388 27.5227C158.01 27.5227 156.591 26.2793 156.591 24.1979L156.61 16.0936C156.761 13.9391 158.205 12.6988 160.525 12.7775C163.271 12.8907 164.728 14.1193 164.854 16.4295V23.9259Z" fill="black"/>
<path fill-rule="evenodd" clip-rule="evenodd" d="M12.6053 1.229L12.612 10.9505C12.612 11.0352 12.5628 11.1115 12.4877 11.1466C12.408 11.1814 12.3195 11.1691 12.2562 11.1157C11.5412 10.5047 10.0395 9.78862 8.16228 9.77738H8.06219C2.5694 9.77738 0.0105473 12.2133 0.0105473 17.4411C0.0105473 18.1104 0.0084401 18.7822 0.00563049 19.4525C-0.00139354 20.9528 -0.00631036 22.503 0.0193273 24.0419C0.0653347 26.898 1.56461 28.801 4.47818 29.698C6.89515 30.4389 9.31317 30.3237 11.4948 29.361C11.9465 29.1635 12.7314 28.886 12.9615 28.8066C12.9843 28.7978 13.0092 28.7943 13.0331 28.7943C13.0689 28.7943 13.1047 28.8024 13.1378 28.8213L16.4735 30.6691L16.4833 27.8049L16.3871 3.64209L12.6053 1.229ZM12.5158 23.7882C12.5116 23.8395 12.199 27.5199 8.31541 27.5199C4.45781 27.5199 4.11996 23.9115 4.10802 23.7587L4.11047 16.5465C4.11855 13.8457 6.24508 12.4339 8.34175 12.4339C10.705 12.4339 12.3911 14.1053 12.5358 16.5915L12.5158 23.7882Z" fill="black"/>
<path fill-rule="evenodd" clip-rule="evenodd" d="M144.204 10.2121C143.093 9.97104 141.994 9.84912 140.938 9.84912C140.153 9.84912 139.369 9.91799 138.612 10.0508C133.761 10.9106 132.191 12.7506 132.147 17.621L132.148 23.4109C132.286 27.547 133.807 29.3358 137.959 30.2409C139.901 30.6618 141.771 30.7166 143.55 30.4018C148.343 29.5547 149.973 27.6458 150.016 22.8344L150.021 22.139C150.029 21.0924 150.04 17.8568 150.014 17.0494C149.877 12.908 148.357 11.1175 144.204 10.2121ZM141.187 28.1197H141.126C137.928 28.1197 136.441 26.7526 136.3 23.6896L136.308 16.6724C136.432 13.7256 137.916 12.3493 140.976 12.3321H140.978H141.036C144.209 12.3321 145.753 13.7403 145.893 16.7634L145.902 23.7816C145.776 26.7284 144.279 28.1039 141.187 28.1197Z" fill="black"/>
<path fill-rule="evenodd" clip-rule="evenodd" d="M189.821 17.049C189.684 12.9073 188.163 11.1175 184.01 10.2121C182.9 9.97104 181.801 9.84912 180.747 9.84912C179.961 9.84912 179.177 9.91799 178.419 10.0508C173.568 10.9106 171.997 12.7506 171.955 17.621L171.957 23.4109C172.091 27.546 173.612 29.3358 177.767 30.2409C179.712 30.6646 181.579 30.7166 183.358 30.4018C188.149 29.5568 189.779 27.6458 189.822 22.8344L189.828 22.139C189.835 21.3179 189.849 17.8996 189.821 17.049ZM180.994 28.1197H180.931C177.737 28.1197 176.249 26.7526 176.106 23.6896L176.113 16.6724C176.24 13.7256 177.725 12.3493 180.782 12.3321H180.784H180.843C184.017 12.3321 185.562 13.7403 185.701 16.7634L185.709 23.7816C185.582 26.7284 184.085 28.1039 180.994 28.1197Z" fill="black"/>
<path fill-rule="evenodd" clip-rule="evenodd" d="M90.3173 9.88128C89.1103 9.88128 87.7764 10.0974 86.3509 10.526C85.1364 10.8918 84.8168 11.0467 84.5597 11.1718C84.4238 11.2382 84.3062 11.2955 84.093 11.3692C84.027 11.3893 83.9602 11.3815 83.9055 11.3468L80.7822 9.33984L80.7896 28.1814L84.9471 30.3464L84.9408 16.5605C84.9285 14.4281 86.1503 13.0494 88.3829 12.6812C88.7268 12.6229 89.0527 12.6169 89.2978 12.6169L89.4776 12.6172C91.9385 12.6464 93.2302 14.0771 93.317 16.869L93.3131 28.011L97.5935 30.415L97.5862 18.833C97.5823 13.1439 94.9328 9.88128 90.3173 9.88128Z" fill="black"/>
<path fill-rule="evenodd" clip-rule="evenodd" d="M48.9137 19.0723C47.8604 18.7238 46.7636 18.4086 45.7947 18.1314C44.7551 17.8314 43.6787 17.5225 42.623 17.1736C40.9186 16.6058 40.1733 15.7275 40.344 14.4872C40.5312 13.1162 41.517 12.3457 43.3573 12.1328C46.6253 11.7495 49.0823 13.1756 50.9261 16.4885C52.1367 14.6804 52.5265 13.6028 52.2677 12.7796C52.0236 12.0038 51.2081 11.4108 49.4521 10.7327C47.8109 10.0974 46.2625 9.78857 44.7182 9.78857C43.6397 9.78857 42.5597 9.94703 41.5107 10.2594C38.4078 11.1782 36.877 12.9564 36.832 15.6913C36.7881 18.3264 38.2737 20.1889 41.1272 21.0757C41.8191 21.288 42.5155 21.4938 43.2098 21.699L43.4409 21.7672C44.8471 22.1811 46.3018 22.6094 47.7059 23.1065C49.1079 23.5995 49.8026 24.5278 49.6593 25.7206C49.503 27.0448 48.6127 27.8287 47.0123 28.0504C43.3113 28.5655 40.5663 27.1221 38.6003 23.6185C37.5551 25.4114 37.0192 26.6299 37.3395 27.5332C37.6405 28.3761 38.6986 28.9183 40.3114 29.5215C43.175 30.591 45.9355 30.7439 48.5737 29.9818C51.5045 29.1329 53.0635 27.392 53.2061 24.8081C53.3616 22.036 51.8771 20.0512 48.9137 19.0723Z" fill="black"/>
<path fill-rule="evenodd" clip-rule="evenodd" d="M55.8705 9.71826L55.8586 19.3379C55.8596 20.1805 55.8586 21.1396 55.8554 22.1399V22.2383C55.8519 24.2495 55.848 26.5252 55.8677 28.2668L59.9353 30.5724L59.923 11.6623L55.8705 9.71826Z" fill="black"/>
<path fill-rule="evenodd" clip-rule="evenodd" d="M29.1123 15.809C29.2907 15.783 29.4228 15.6316 29.4294 15.4429C29.4407 15.1636 29.4407 14.8814 29.4294 14.6088C29.421 14.4015 29.3072 14.2771 29.1277 14.2771C29.1091 14.2771 29.0909 14.2778 29.0491 14.2817C28.7576 14.3119 28.4626 14.3421 28.2065 14.4447C27.2435 14.8252 26.6335 15.5574 26.4393 16.5634C26.3009 17.2889 26.4319 18.006 26.8186 18.6413C27.3854 19.5678 28.281 20.1194 29.4796 20.2786C30.0367 20.3509 30.7057 20.2237 31.1194 20.1338C31.8482 19.9701 32.4968 19.6152 33.0482 19.0822C33.8869 18.2699 34.3413 17.2221 34.4393 15.8765C34.4881 15.2029 34.4091 14.5167 34.2051 13.8393C33.9842 13.1054 33.6308 12.4547 33.1588 11.9051C32.0638 10.6259 30.5578 9.89155 28.681 9.7215C26.0003 9.59712 24.2243 10.4727 23.7154 10.7292C22.24 11.4712 21.0396 12.5727 20.1454 14.001C19.5491 14.9559 19.154 15.9875 18.9735 17.0647C18.8807 17.6262 18.8734 18.1986 18.8741 18.7825C18.8758 19.461 18.9081 19.9736 18.9812 20.4447C19.0662 20.9992 19.22 21.5589 19.3689 22.0986L19.1761 22.2124L19.3844 22.1548C19.5909 22.9021 19.9213 23.6403 20.3937 24.4076C21.3581 25.9778 22.5929 27.255 24.2604 28.2026C25.0081 28.6281 25.6329 28.932 26.2282 29.1604C26.9882 29.4481 27.7665 29.6638 28.6318 29.894C29.1871 30.0394 29.749 30.1477 30.3008 30.2144C30.7159 30.2657 31.1264 30.2871 31.5602 30.3096L31.6423 30.316C31.8362 30.3254 32.4561 30.3578 32.8073 30.3353C33.2027 30.3114 33.6122 30.2871 34.0196 30.2415C34.0375 30.2404 34.0562 30.2376 34.0716 30.2348V28.5413C33.7675 28.5694 33.3713 28.5789 33.3144 28.581C32.2303 28.581 31.1791 28.4155 30.1866 28.0905C28.9455 27.6836 27.8086 27.073 26.8067 26.2768C25.7376 25.428 24.8779 24.4375 24.2531 23.3311C23.5169 22.0283 23.1131 20.6998 23.0151 19.2674C22.9501 18.3191 23.0084 17.4467 23.1921 16.6017C23.3631 15.8157 23.6676 15.0968 24.0968 14.4644C24.848 13.3562 25.9065 12.6602 27.2414 12.396C28.0341 12.2379 28.8183 12.292 29.5383 12.5481C30.2569 12.8014 30.7854 13.2118 31.1535 13.7986C31.5461 14.4229 31.7242 15.1277 31.6968 15.9506C31.675 16.6505 31.4509 17.2517 31.0288 17.7376C30.5132 18.3335 29.7395 18.5471 29.0276 18.2804C28.4966 18.0833 28.1862 17.6508 28.1539 17.0616C28.1233 16.5114 28.4071 15.9109 29.1123 15.809Z" fill="black"/>
<path fill-rule="evenodd" clip-rule="evenodd" d="M55.8525 5.3396L59.9388 7.22777V2.18833L55.8525 0.0981445V5.3396Z" fill="black"/>
</svg>
