<svg width="142" height="27" viewBox="0 0 142 27" fill="none" xmlns="http://www.w3.org/2000/svg">
<path fill-rule="evenodd" clip-rule="evenodd" d="M18.2766 2.71216C17.5628 2.31542 15.5166 2.56073 13.0591 3.32251C8.75801 6.26648 5.12801 10.6037 4.87469 17.5686C4.82857 17.7351 4.40435 17.5459 4.32044 17.4944C3.15899 15.2652 2.69884 12.9179 3.66862 9.53171C3.84938 9.23036 3.25841 8.85937 3.15216 8.96533C2.93929 9.17884 2.0519 10.1254 1.46252 11.1491C-1.4589 16.2239 0.451584 22.7263 5.56279 25.5719C10.6729 28.422 17.1259 26.5835 19.9712 21.4649C23.2629 15.5571 20.2064 3.79145 18.2767 2.71234L18.2766 2.71216Z" fill="black"/>
<path fill-rule="evenodd" clip-rule="evenodd" d="M36.5679 5.54736C30.5088 5.54736 26.1108 10.058 26.1108 16.2728C26.1108 22.5385 30.4974 26.9147 36.779 26.9147C39.9519 26.9147 42.4639 25.9212 44.4617 23.876C45.0583 23.2309 45.1225 22.6091 45.1225 22.3715C45.1225 21.3583 44.3701 20.6224 43.3335 20.6224C42.811 20.6224 42.3739 20.82 41.8726 21.2842C40.7414 22.3397 39.2516 23.4179 36.779 23.4179C33.3407 23.4179 30.5444 20.8329 30.3683 17.5133H44.053C45.5411 17.5133 46.2639 16.8167 46.2639 15.3841C46.2639 14.9623 46.2639 14.6579 46.1792 14.0574C45.442 8.72901 41.8494 5.54807 36.5683 5.54807L36.5679 5.54736ZM36.5679 8.87449C39.8534 8.87449 41.9617 10.9712 42.0917 14.3551H30.3725C30.6802 11.2233 33.3245 8.87449 36.5678 8.87449H36.5679Z" fill="black"/>
<path fill-rule="evenodd" clip-rule="evenodd" d="M59.3313 5.54736C56.5789 5.54736 53.8537 7.13219 52.789 9.33331V7.97301C52.789 5.86568 51.158 5.75892 50.8313 5.75892C49.8649 5.75892 48.832 6.34049 48.832 7.97301V24.403C48.832 26.5914 50.5681 26.702 50.916 26.702C51.2639 26.702 53.0008 26.5914 53.0008 24.403V15.5954C53.0008 11.7631 55.1694 9.08649 58.2743 9.08649C61.2816 9.08649 62.744 11.0627 62.744 15.1289V24.403C62.744 26.5914 64.4809 26.702 64.8287 26.702C65.1766 26.702 66.9127 26.5914 66.9127 24.403V13.818C66.9127 9.81994 64.921 5.54861 59.3313 5.54861V5.54736Z" fill="black"/>
<path fill-rule="evenodd" clip-rule="evenodd" d="M85.7746 5.75928C84.8113 5.75928 84.1127 6.32193 83.6967 7.42893L77.9933 21.7904L72.3334 7.42893C71.8903 6.30532 71.1969 5.75928 70.2131 5.75928C69.0638 5.75928 68.1284 6.65729 68.1284 7.76136C68.1284 8.03465 68.1594 8.38902 68.3901 8.94252L74.9445 24.44C75.7256 26.3096 77.0103 26.7019 77.9509 26.7019C78.8909 26.7019 80.1763 26.3096 80.959 24.4409L87.5561 8.85726C87.7814 8.3106 87.8163 7.90924 87.8163 7.71926C87.8163 6.60241 86.9376 5.75954 85.7746 5.75954V5.75928Z" fill="black"/>
<path fill-rule="evenodd" clip-rule="evenodd" d="M97.892 5.54745C95.2257 5.54745 92.7424 6.29102 90.9005 7.6396C90.2758 8.07115 89.9719 8.60955 89.9719 9.28651C89.9719 10.2186 90.6827 10.9493 91.5916 10.9493C91.9848 10.9493 92.4249 10.7926 92.8286 10.5093C94.4121 9.45233 95.9002 8.9594 97.5108 8.9594C100.593 8.9594 102.362 10.529 102.362 13.2663V13.7199C95.4435 13.7275 88.4062 14.5642 88.4062 20.5915C88.4062 24.9295 92.1084 26.8717 95.7772 26.8717C98.6991 26.8717 101.033 25.7124 102.53 23.5172V24.5728C102.53 26.1447 103.584 26.7021 104.488 26.7021C104.679 26.7021 106.361 26.6423 106.361 24.5728V13.5196C106.361 8.52669 103.194 5.54639 97.8916 5.54639L97.892 5.54745ZM101.485 16.7933H102.362V17.7549C102.362 21.2721 100.126 23.5445 96.6656 23.5445C95.7264 23.5445 92.6609 23.3256 92.6609 20.5066C92.6608 17.178 97.6969 16.7933 101.485 16.7933Z" fill="black"/>
<path fill-rule="evenodd" clip-rule="evenodd" d="M117.219 9.55214C119.043 9.55214 119.135 8.13091 119.135 7.84616C119.135 7.00108 118.631 6.09774 117.219 6.09774H113.468V2.29891C113.468 0.601994 112.369 0 111.427 0C111.079 0 109.343 0.110576 109.343 2.29891V20.3383C109.343 24.5013 111.393 26.7018 115.274 26.7018C116.278 26.7018 117.257 26.5238 117.896 26.2254C118.63 25.859 119.05 25.2563 119.05 24.5725C119.05 23.6079 118.352 22.9083 117.388 22.9083C117.202 22.9083 116.938 22.9544 116.646 23.0385C116.289 23.1279 116.047 23.1626 115.782 23.1626C114.203 23.1626 113.468 22.1306 113.468 19.9143V9.55036H117.219V9.55214Z" fill="black"/>
<path fill-rule="evenodd" clip-rule="evenodd" d="M131.002 5.54736C124.697 5.54736 120.123 10.0224 120.123 16.1875C120.123 19.1891 121.231 21.9248 123.242 23.8904C125.239 25.8402 127.994 26.914 131.002 26.914C137.228 26.914 141.924 22.3026 141.924 16.1877C141.924 10.0225 137.33 5.54754 131.002 5.54754L131.002 5.54736ZM131.002 23.3745C126.678 23.3745 124.417 19.7588 124.417 16.1871C124.417 11.2789 127.83 9.04369 131.002 9.04369C134.173 9.04369 137.587 11.2789 137.587 16.1871C137.587 21.1256 134.173 23.3745 131.002 23.3745Z" fill="black"/>
</svg>
