<svg width="40" height="40" viewBox="0 0 40 40" fill="none" xmlns="http://www.w3.org/2000/svg">
<path fill-rule="evenodd" clip-rule="evenodd" d="M0 20C0 28.8379 5.73 36.333 13.678 38.977C14.6777 39.1602 15.0427 38.5425 15.0427 38.0151C15.0427 37.539 15.0244 35.9619 15.0146 34.292C9.45312 35.5005 8.27758 31.9336 8.27758 31.9336C7.36695 29.624 6.05711 29.0088 6.05711 29.0088C4.23949 27.7686 6.195 27.793 6.195 27.793C8.20305 27.9321 9.26023 29.8535 9.26023 29.8535C11.0449 32.9102 13.9429 32.0264 15.0805 31.5137C15.2623 30.2246 15.7799 29.3408 16.3501 28.8428C11.9104 28.3374 7.24 26.6211 7.24 18.9575C7.24 16.7724 8.02004 14.9902 9.29688 13.5901C9.09301 13.0823 8.40453 11.0473 9.49461 8.29469C9.49461 8.29469 11.1719 7.75758 14.9951 10.3455C16.5893 9.89992 18.2995 9.68019 20 9.67285C21.6992 9.68019 23.4106 9.90234 25.0073 10.3479C28.8232 7.75758 30.5029 8.29711 30.5029 8.29711C31.5967 11.0522 30.9082 13.0847 30.7031 13.5901C31.9848 14.9902 32.7588 16.7725 32.7588 18.9575C32.7588 26.6406 28.0811 28.3325 23.6255 28.8281C24.3457 29.4482 24.9829 30.6641 24.9829 32.5293C24.9829 35.2027 24.9561 37.3584 24.9561 38.0176C24.9561 38.5498 25.3198 39.1723 26.333 38.977C34.2749 36.3281 40 28.833 40 20C40 8.95508 31.0449 0 20 0C8.95508 0 0 8.95508 0 20Z" fill="black"/>
</svg>
