<svg width="118" height="39" viewBox="0 0 118 39" fill="none" xmlns="http://www.w3.org/2000/svg">
<path fill-rule="evenodd" clip-rule="evenodd" d="M50.1583 20.4448C50.1583 25.9785 45.8293 30.0562 40.5167 30.0562C35.204 30.0562 30.875 25.9785 30.875 20.4448C30.875 14.8722 35.204 10.8335 40.5167 10.8335C45.8293 10.8335 50.1583 14.8722 50.1583 20.4448ZM45.9377 20.4448C45.9377 16.9868 43.4287 14.6208 40.5167 14.6208C37.6047 14.6208 35.0957 16.9868 35.0957 20.4448C35.0957 23.8682 37.6047 26.2688 40.5167 26.2688C43.4287 26.2688 45.9377 23.8638 45.9377 20.4448Z" fill="black"/>
<path fill-rule="evenodd" clip-rule="evenodd" d="M70.9581 20.4448C70.9581 25.9785 66.6291 30.0562 61.3165 30.0562C56.0038 30.0562 51.6748 25.9785 51.6748 20.4448C51.6748 14.8765 56.0038 10.8335 61.3165 10.8335C66.6291 10.8335 70.9581 14.8722 70.9581 20.4448ZM66.7375 20.4448C66.7375 16.9868 64.2285 14.6208 61.3165 14.6208C58.4045 14.6208 55.8955 16.9868 55.8955 20.4448C55.8955 23.8682 58.4045 26.2688 61.3165 26.2688C64.2285 26.2688 66.7375 23.8638 66.7375 20.4448Z" fill="black"/>
<path fill-rule="evenodd" clip-rule="evenodd" d="M90.8916 11.4142V28.6695C90.8916 35.7675 86.7056 38.6665 81.757 38.6665C77.0986 38.6665 74.295 35.5508 73.2376 33.0028L76.9123 31.4732C77.5666 33.0375 79.17 34.8835 81.7526 34.8835C84.9203 34.8835 86.8833 32.9292 86.8833 29.2502V27.8678H86.736C85.7913 29.0335 83.9713 30.0518 81.6746 30.0518C76.869 30.0518 72.4663 25.8658 72.4663 20.4795C72.4663 15.0542 76.869 10.8335 81.6746 10.8335C83.967 10.8335 85.787 11.8518 86.736 12.9828H86.8833V11.4185H90.8916V11.4142ZM87.1823 20.4795C87.1823 17.0952 84.9246 14.6208 82.0516 14.6208C79.1396 14.6208 76.7 17.0952 76.7 20.4795C76.7 23.8292 79.1396 26.2688 82.0516 26.2688C84.9246 26.2688 87.1823 23.8292 87.1823 20.4795Z" fill="black"/>
<path fill-rule="evenodd" clip-rule="evenodd" d="M97.5 1.2998V29.4665H93.3833V1.2998H97.5Z" fill="black"/>
<path fill-rule="evenodd" clip-rule="evenodd" d="M113.542 23.6081L116.818 25.7921C115.761 27.3564 113.213 30.0518 108.81 30.0518C103.35 30.0518 99.2725 25.8311 99.2725 20.4404C99.2725 14.7248 103.385 10.8291 108.338 10.8291C113.325 10.8291 115.765 14.7984 116.562 16.9434L117 18.0354L104.152 23.3568C105.135 25.2851 106.665 26.2688 108.81 26.2688C110.959 26.2688 112.45 25.2114 113.542 23.6081ZM103.458 20.1501L112.047 16.5838C111.575 15.3834 110.153 14.5471 108.481 14.5471C106.336 14.5471 103.35 16.4408 103.458 20.1501Z" fill="black"/>
<path fill-rule="evenodd" clip-rule="evenodd" d="M15.2921 17.9443V13.8666H29.0331C29.1674 14.5773 29.2368 15.4179 29.2368 16.3279C29.2368 19.3873 28.4004 23.1703 25.7051 25.8656C23.0834 28.5956 19.7338 30.0516 15.2964 30.0516C7.07176 30.0516 0.155762 23.3523 0.155762 15.1276C0.155762 6.90295 7.07176 0.203613 15.2964 0.203613C19.8464 0.203613 23.0878 1.98895 25.5231 4.31595L22.6458 7.19328C20.8994 5.55528 18.5334 4.28128 15.2921 4.28128C9.28609 4.28128 4.58876 9.12161 4.58876 15.1276C4.58876 21.1336 9.28609 25.9739 15.2921 25.9739C19.1878 25.9739 21.4064 24.4096 22.8278 22.9883C23.9804 21.8356 24.7388 20.1889 25.0378 17.9399L15.2921 17.9443Z" fill="black"/>
</svg>
