<svg width="40" height="41" viewBox="0 0 40 41" fill="none" xmlns="http://www.w3.org/2000/svg">
<path fill-rule="evenodd" clip-rule="evenodd" d="M39.7526 9.19041C39.7509 9.13169 39.7327 9.07632 39.7178 9.01928C39.7045 8.96895 39.6979 8.91862 39.678 8.87332C39.6581 8.82803 39.6233 8.78944 39.5935 8.7475C39.5587 8.69884 39.5289 8.65187 39.4875 8.6116C39.4776 8.60154 39.4726 8.58979 39.4626 8.58141L29.5224 0.192935C29.3733 0.0687855 29.1861 0 28.9923 0H10.7686C10.5747 0 10.3875 0.0687855 10.2384 0.194613L0.298206 8.58308C0.288266 8.59147 0.283296 8.60322 0.273356 8.61328C0.231938 8.65187 0.200461 8.70052 0.167327 8.74917C0.137506 8.79112 0.104372 8.82803 0.0828351 8.87332C0.061298 8.91862 0.0546712 8.96895 0.0414176 9.01928C0.0281639 9.07632 0.00994021 9.13001 0.00828351 9.19041C0.00662681 9.20215 0 9.2139 0 9.22732V19.2935V29.3596V36.0704C0 38.3823 1.85716 40.2647 4.14176 40.2647H35.6191C37.9037 40.2647 39.7608 38.3823 39.7608 36.0704V29.3596V19.2935V9.22732C39.7608 9.2139 39.7542 9.20215 39.7526 9.19041ZM38.1041 18.4546H1.6567V10.0662H38.1041V18.4546ZM1.6567 20.1323H38.1041V28.5208H1.6567V20.1323ZM11.0684 1.67769H28.6941L36.6462 8.38847H3.11626L11.0684 1.67769ZM35.6191 38.587H4.14176C2.77166 38.587 1.6567 37.4579 1.6567 36.0704V30.1985H38.1041V36.0704C38.1041 37.4579 36.9892 38.587 35.6191 38.587Z" fill="black"/>
<path fill-rule="evenodd" clip-rule="evenodd" d="M23.1938 15.9382C24.1088 15.9382 24.8505 15.187 24.8505 14.2605C24.8505 13.3339 24.1088 12.5828 23.1938 12.5828C22.2788 12.5828 21.5371 13.3339 21.5371 14.2605C21.5371 15.187 22.2788 15.9382 23.1938 15.9382Z" fill="black"/>
<path fill-rule="evenodd" clip-rule="evenodd" d="M28.164 15.9382C29.079 15.9382 29.8207 15.187 29.8207 14.2605C29.8207 13.3339 29.079 12.5828 28.164 12.5828C27.2491 12.5828 26.5073 13.3339 26.5073 14.2605C26.5073 15.187 27.2491 15.9382 28.164 15.9382Z" fill="black"/>
<path fill-rule="evenodd" clip-rule="evenodd" d="M33.1342 15.9382C34.0492 15.9382 34.7909 15.187 34.7909 14.2605C34.7909 13.3339 34.0492 12.5828 33.1342 12.5828C32.2193 12.5828 31.4775 13.3339 31.4775 14.2605C31.4775 15.187 32.2193 15.9382 33.1342 15.9382Z" fill="black"/>
<path fill-rule="evenodd" clip-rule="evenodd" d="M5.79853 16.777C7.16862 16.777 8.28358 15.6479 8.28358 14.2604C8.28358 12.873 7.16862 11.7439 5.79853 11.7439C4.42844 11.7439 3.31348 12.873 3.31348 14.2604C3.31348 15.6479 4.42844 16.777 5.79853 16.777ZM5.79853 13.4216C6.25412 13.4216 6.62688 13.7974 6.62688 14.2604C6.62688 14.7235 6.25412 15.0993 5.79853 15.0993C5.34294 15.0993 4.97018 14.7235 4.97018 14.2604C4.97018 13.7974 5.34294 13.4216 5.79853 13.4216Z" fill="black"/>
<path fill-rule="evenodd" clip-rule="evenodd" d="M23.1938 26.0043C24.1088 26.0043 24.8505 25.2532 24.8505 24.3266C24.8505 23.4001 24.1088 22.6489 23.1938 22.6489C22.2788 22.6489 21.5371 23.4001 21.5371 24.3266C21.5371 25.2532 22.2788 26.0043 23.1938 26.0043Z" fill="black"/>
<path fill-rule="evenodd" clip-rule="evenodd" d="M28.164 26.0043C29.079 26.0043 29.8207 25.2532 29.8207 24.3266C29.8207 23.4001 29.079 22.6489 28.164 22.6489C27.2491 22.6489 26.5073 23.4001 26.5073 24.3266C26.5073 25.2532 27.2491 26.0043 28.164 26.0043Z" fill="black"/>
<path fill-rule="evenodd" clip-rule="evenodd" d="M33.1342 26.0043C34.0492 26.0043 34.7909 25.2532 34.7909 24.3266C34.7909 23.4001 34.0492 22.6489 33.1342 22.6489C32.2193 22.6489 31.4775 23.4001 31.4775 24.3266C31.4775 25.2532 32.2193 26.0043 33.1342 26.0043Z" fill="black"/>
<path fill-rule="evenodd" clip-rule="evenodd" d="M5.79853 21.8101C4.42844 21.8101 3.31348 22.9391 3.31348 24.3266C3.31348 25.7141 4.42844 26.8431 5.79853 26.8431C7.16862 26.8431 8.28358 25.7141 8.28358 24.3266C8.28358 22.9391 7.16862 21.8101 5.79853 21.8101ZM5.79853 25.1654C5.34294 25.1654 4.97018 24.7896 4.97018 24.3266C4.97018 23.8636 5.34294 23.4878 5.79853 23.4878C6.25412 23.4878 6.62688 23.8636 6.62688 24.3266C6.62688 24.7896 6.25412 25.1654 5.79853 25.1654Z" fill="black"/>
<path fill-rule="evenodd" clip-rule="evenodd" d="M23.1938 36.0705C24.1088 36.0705 24.8505 35.3193 24.8505 34.3928C24.8505 33.4662 24.1088 32.7151 23.1938 32.7151C22.2788 32.7151 21.5371 33.4662 21.5371 34.3928C21.5371 35.3193 22.2788 36.0705 23.1938 36.0705Z" fill="black"/>
<path fill-rule="evenodd" clip-rule="evenodd" d="M28.164 36.0705C29.079 36.0705 29.8207 35.3193 29.8207 34.3928C29.8207 33.4662 29.079 32.7151 28.164 32.7151C27.2491 32.7151 26.5073 33.4662 26.5073 34.3928C26.5073 35.3193 27.2491 36.0705 28.164 36.0705Z" fill="black"/>
<path fill-rule="evenodd" clip-rule="evenodd" d="M33.1342 36.0705C34.0492 36.0705 34.7909 35.3193 34.7909 34.3928C34.7909 33.4662 34.0492 32.7151 33.1342 32.7151C32.2193 32.7151 31.4775 33.4662 31.4775 34.3928C31.4775 35.3193 32.2193 36.0705 33.1342 36.0705Z" fill="black"/>
<path fill-rule="evenodd" clip-rule="evenodd" d="M5.79853 31.8762C4.42844 31.8762 3.31348 33.0053 3.31348 34.3928C3.31348 35.7802 4.42844 36.9093 5.79853 36.9093C7.16862 36.9093 8.28358 35.7802 8.28358 34.3928C8.28358 33.0053 7.16862 31.8762 5.79853 31.8762ZM5.79853 35.2316C5.34294 35.2316 4.97018 34.8558 4.97018 34.3928C4.97018 33.9297 5.34294 33.5539 5.79853 33.5539C6.25412 33.5539 6.62688 33.9297 6.62688 34.3928C6.62688 34.8558 6.25412 35.2316 5.79853 35.2316Z" fill="black"/>
</svg>
