<svg width="17" height="13" viewBox="0 0 17 13" fill="none" xmlns="http://www.w3.org/2000/svg">
<path fill-rule="evenodd" clip-rule="evenodd" d="M15.1541 1.63727C15.8572 1.24572 15.8894 0.97052 16.1436 0.230612C15.4854 0.593599 14.756 0.857653 13.9802 0.999782C13.3603 0.385282 12.475 0 11.4952 0C9.61372 0 8.08902 1.41851 8.08902 3.16586C8.08902 3.41389 8.119 3.65565 8.17672 3.88766C5.3462 3.75598 2.83577 2.49562 1.1559 0.579665C0.862799 1.04716 0.694887 1.59129 0.694887 2.17165C0.694887 3.27037 1.29682 4.2388 2.20984 4.80662C1.65139 4.7899 1.12666 4.64777 0.667901 4.41089C0.667151 4.42412 0.667151 4.43666 0.667151 4.4506C0.667151 5.98476 1.84104 7.26392 3.40022 7.55515C2.90098 7.68125 2.37476 7.70076 1.86128 7.61019C2.2953 8.86706 3.55314 9.78254 5.04336 9.80832C3.58537 10.8701 1.77807 11.3125 0 11.1188C1.50821 12.0169 3.29752 12.5408 5.22177 12.5408C11.487 12.5408 14.9127 7.71679 14.9127 3.53303C14.9127 3.39508 14.9105 3.25922 14.9037 3.12336C15.5686 2.67747 16.3677 2.26153 16.8242 1.62613C16.214 1.87903 15.6998 1.88739 15.1541 1.63727Z" fill="white"/>
</svg>
