<svg width="16" height="12" viewBox="0 0 16 12" fill="none" xmlns="http://www.w3.org/2000/svg">
<path fill-rule="evenodd" clip-rule="evenodd" d="M15.942 2.77444C15.8726 4.12683 14.7866 5.97554 12.6915 8.32139C10.5233 10.7743 8.68607 12 7.18463 12C6.25619 12 5.46936 11.2543 4.82695 9.758C4.39649 8.38516 3.96885 7.01233 3.53933 5.64358C3.06104 4.14646 2.54899 3.39831 2.0013 3.39831C1.8822 3.39831 1.46675 3.61662 0.750255 4.05406L0 3.21106C0.785892 2.61009 1.56053 2.00666 2.32485 1.40487C3.37146 0.61502 4.15829 0.200471 4.68347 0.157135C5.92139 0.0524757 6.68477 0.790815 6.97268 2.3697C7.27935 4.0745 7.49504 5.13418 7.61415 5.54955C7.97239 6.96245 8.3644 7.66726 8.79392 7.66726C9.12685 7.66726 9.62764 7.21101 10.2954 6.2977C10.9631 5.38275 11.3185 4.68774 11.3673 4.2086C11.463 3.41875 11.1056 3.02627 10.2954 3.02627C9.91368 3.02627 9.51979 3.09659 9.11559 3.24377C9.90336 1.02058 11.4039 -0.0603602 13.6209 0.00259896C15.263 0.0426639 16.0386 0.968245 15.942 2.77444Z" fill="white"/>
</svg>
